<svg xmlns="http://www.w3.org/2000/svg" viewBox="0 0 512 512">
<defs><linearGradient id="a" x1="0" y1="0" x2="1" y2="1"><stop stop-color="#203b46"/><stop offset="1" stop-color="#0a161d"/></linearGradient><linearGradient id="b" x1="0" y1="0" x2="1" y2="1"><stop stop-color="#87f3cb"/><stop offset="1" stop-color="#45cba8"/></linearGradient></defs>
<rect width="512" height="512" rx="120" fill="url(#a)"/>
<circle cx="256" cy="256" r="180" fill="none" stroke="#92e8d0" stroke-opacity=".19" stroke-width="3"/>
<path d="M134 168h244a39 39 0 0 1 39 39v103a39 39 0 0 1-39 39H249l-73 49v-49h-42a39 39 0 0 1-39-39V207a39 39 0 0 1 39-39Z" fill="url(#b)"/>
<path d="M256 213v60l44 25" fill="none" stroke="#10352f" stroke-linecap="round" stroke-linejoin="round" stroke-width="19"/>
<circle cx="256" cy="273" r="7" fill="#10352f"/>
</svg>
